<svg class="icon icon-arrow" width="20" height="20" viewBox="0 0 20 20" fill="none" xmlns="http://www.w3.org/2000/svg">
<path d="M12.3001 18.8748C11.9558 18.8694 11.6194 18.7714 11.3261 18.591C11.0328 18.4106 10.7935 18.1546 10.6334 17.8498L7.73339 12.5498C7.67023 12.4285 7.57132 12.3296 7.45005 12.2665L2.15005 9.40812C1.81329 9.22519 1.5379 8.94708 1.35829 8.60854C1.17867 8.27 1.1028 7.88603 1.14014 7.50462C1.17748 7.1232 1.32638 6.76125 1.56825 6.46397C1.81011 6.16669 2.13421 5.94727 2.50005 5.83312L16.3084 1.22479C16.6571 1.10121 17.0337 1.07894 17.3945 1.16054C17.7554 1.24214 18.0857 1.42429 18.3473 1.68589C18.6089 1.94748 18.791 2.27783 18.8726 2.63867C18.9542 2.99951 18.932 3.37609 18.8084 3.72479L14.1667 17.5415C14.0501 17.9018 13.8297 18.2197 13.5333 18.4554C13.2368 18.691 12.8774 18.834 12.5001 18.8665L12.3001 18.8748ZM16.6667 2.41646L2.85839 7.02479C2.72675 7.06711 2.61059 7.14748 2.52457 7.25574C2.43855 7.36401 2.38653 7.49532 2.37505 7.63312C2.36262 7.76928 2.39081 7.90606 2.45607 8.0262C2.52133 8.14634 2.62073 8.24445 2.74172 8.30812L8.04172 11.1665C8.37883 11.3453 8.65458 11.621 8.83339 11.9581L11.6667 17.2581C11.7304 17.3791 11.8285 17.4785 11.9486 17.5438C12.0688 17.609 12.2056 17.6372 12.3417 17.6248C12.4795 17.6133 12.6108 17.5613 12.7191 17.4753C12.8274 17.3893 12.9077 17.2731 12.9501 17.1415L17.5834 3.33312C17.6373 3.2049 17.6518 3.06352 17.6251 2.92702C17.5983 2.79051 17.5315 2.66507 17.4331 2.56671C17.3348 2.46835 17.2093 2.40153 17.0728 2.37476C16.9363 2.348 16.7949 2.36252 16.6667 2.41646Z" fill="#64B496"/>
<path d="M8.05827 12.5669C7.97595 12.5688 7.89414 12.5534 7.81809 12.5218C7.74204 12.4903 7.67341 12.4432 7.61661 12.3836C7.55764 12.3261 7.51078 12.2574 7.47878 12.1816C7.44678 12.1057 7.4303 12.0242 7.4303 11.9419C7.4303 11.8596 7.44678 11.7781 7.47878 11.7022C7.51078 11.6264 7.55764 11.5577 7.61661 11.5002L17.4166 1.6669C17.5382 1.54534 17.703 1.47705 17.8749 1.47705C18.0468 1.47705 18.2117 1.54534 18.3333 1.6669C18.4548 1.78846 18.5231 1.95332 18.5231 2.12523C18.5231 2.29714 18.4548 2.46201 18.3333 2.58357L8.49994 12.3836C8.44224 12.442 8.37344 12.4883 8.2976 12.5198C8.22176 12.5513 8.14039 12.5673 8.05827 12.5669Z" fill="#64B496"/>
</svg>
