<svg width="30" height="30" viewBox="0 0 30 30" fill="none" xmlns="http://www.w3.org/2000/svg">
  <path d="M25.9091 -0.00390625H4.09091C1.83156 -0.00390625 0 1.82766 0 4.087V25.9052C0 28.1645 1.83156 29.9961 4.09091 29.9961H25.9091C28.1684 29.9961 30 28.1645 30 25.9052V4.087C30 1.82766 28.1684 -0.00390625 25.9091 -0.00390625Z" fill="#0077B5"/>
  <path d="M10.8068 8.17791C10.8068 8.6836 10.6568 9.17794 10.3759 9.5984C10.0949 10.0189 9.69558 10.3466 9.22839 10.5401C8.76119 10.7336 8.2471 10.7843 7.75112 10.6856C7.25515 10.5869 6.79957 10.3434 6.44199 9.98586C6.08441 9.62828 5.8409 9.1727 5.74225 8.67672C5.64359 8.18075 5.69422 7.66666 5.88774 7.19946C6.08126 6.73226 6.40898 6.33294 6.82944 6.052C7.24991 5.77105 7.74424 5.62109 8.24994 5.62109C8.92805 5.62109 9.57838 5.89047 10.0579 6.36997C10.5374 6.84946 10.8068 7.4998 10.8068 8.17791Z" fill="white"/>
  <path d="M10.2272 12.4393V23.7353C10.2277 23.8186 10.2117 23.9012 10.1801 23.9783C10.1485 24.0555 10.102 24.1256 10.0432 24.1847C9.98446 24.2437 9.91459 24.2906 9.83764 24.3226C9.7607 24.3546 9.67818 24.3711 9.59485 24.3711H6.89996C6.81663 24.3713 6.73407 24.3551 6.65704 24.3233C6.58001 24.2915 6.51002 24.2448 6.45109 24.1859C6.39217 24.1269 6.34547 24.0569 6.31368 23.9799C6.28189 23.9029 6.26565 23.8203 6.26587 23.737V12.4393C6.26587 12.2711 6.33268 12.1098 6.45159 11.9909C6.57051 11.872 6.73179 11.8052 6.89996 11.8052H9.59485C9.76273 11.8056 9.92357 11.8726 10.0421 11.9915C10.1607 12.1104 10.2272 12.2714 10.2272 12.4393Z" fill="white"/>
  <path d="M24.3135 18.3199V23.7881C24.3138 23.8647 24.2988 23.9407 24.2696 24.0115C24.2404 24.0823 24.1975 24.1467 24.1433 24.2008C24.0891 24.255 24.0248 24.298 23.9539 24.3272C23.8831 24.3564 23.8072 24.3713 23.7306 24.3711H20.8329C20.7562 24.3713 20.6803 24.3564 20.6095 24.3272C20.5387 24.298 20.4743 24.255 20.4202 24.2008C20.366 24.1467 20.323 24.0823 20.2938 24.0115C20.2646 23.9407 20.2497 23.8647 20.2499 23.7881V18.4887C20.2499 17.6978 20.4817 15.0251 18.1823 15.0251C16.401 15.0251 16.038 16.854 15.9664 17.6756V23.7881C15.9664 23.9413 15.9062 24.0883 15.7987 24.1974C15.6912 24.3064 15.5451 24.3688 15.392 24.3711H12.5931C12.5166 24.3711 12.4409 24.356 12.3703 24.3267C12.2996 24.2974 12.2355 24.2544 12.1815 24.2002C12.1275 24.1461 12.0847 24.0818 12.0556 24.0111C12.0265 23.9404 12.0116 23.8646 12.0118 23.7881V12.3898C12.0116 12.3134 12.0265 12.2376 12.0556 12.1669C12.0847 12.0962 12.1275 12.0319 12.1815 11.9777C12.2355 11.9236 12.2996 11.8806 12.3703 11.8513C12.4409 11.822 12.5166 11.8069 12.5931 11.8069H15.392C15.5466 11.8069 15.6948 11.8683 15.8042 11.9776C15.9135 12.0869 15.9749 12.2352 15.9749 12.3898V13.3751C16.6363 12.383 17.6164 11.6177 19.7079 11.6177C24.3408 11.6177 24.3135 15.9438 24.3135 18.3199Z" fill="white"/>
  </svg>
  