<svg class="icon icon-instagram" width="30" height="30" viewBox="0 0 30 30" fill="none" xmlns="http://www.w3.org/2000/svg">
<path d="M1.95689 2.0789C-0.393836 4.52014 0.0872779 7.11341 0.0872779 14.9917C0.0872779 21.534 -1.05443 28.0926 4.92085 29.6366C6.78672 30.1163 23.3191 30.1163 25.1825 29.6341C27.6703 28.9923 29.6945 26.9748 29.9712 23.4568C30.0098 22.9659 30.0098 7.02617 29.9699 6.52522C29.6758 2.778 27.3687 0.618399 24.3287 0.180995C23.6319 0.0800559 23.4923 0.050148 19.9176 0.0439171C7.23792 0.050148 4.45843 -0.514364 1.95689 2.0789Z" fill="url(#paint0_linear_343_1211)"/>
<path d="M15.0417 3.95548C10.516 3.95548 6.21834 3.55297 4.57682 7.76501C3.89877 9.50465 3.99724 11.7639 3.99724 14.999C3.99724 17.8378 3.90625 20.5058 4.57682 22.2317C6.2146 26.4463 10.5471 26.0425 15.0392 26.0425C19.3729 26.0425 23.8413 26.4936 25.5028 22.2317C26.1821 20.4746 26.0824 18.249 26.0824 14.999C26.0824 10.6848 26.3204 7.89959 24.2277 5.80853C22.1088 3.69005 19.2433 3.95548 15.0367 3.95548H15.0417ZM14.052 5.94561C23.4923 5.93065 24.6939 4.88138 24.0308 19.4578C23.7952 24.6131 19.869 24.0474 15.0429 24.0474C6.24326 24.0474 5.99024 23.7957 5.99024 14.994C5.99024 6.09016 6.68823 5.95059 14.052 5.94311V5.94561ZM20.9372 7.77871C20.2055 7.77871 19.6122 8.37189 19.6122 9.10339C19.6122 9.83488 20.2055 10.4281 20.9372 10.4281C21.6688 10.4281 22.2621 9.83488 22.2621 9.10339C22.2621 8.37189 21.6688 7.77871 20.9372 7.77871ZM15.0417 9.3277C11.9094 9.3277 9.3705 11.8674 9.3705 14.999C9.3705 18.1306 11.9094 20.669 15.0417 20.669C18.1739 20.669 20.7116 18.1306 20.7116 14.999C20.7116 11.8674 18.1739 9.3277 15.0417 9.3277ZM15.0417 11.3178C19.9089 11.3178 19.9151 18.6802 15.0417 18.6802C10.1757 18.6802 10.1682 11.3178 15.0417 11.3178Z" fill="white"/>
<defs>
<linearGradient id="paint0_linear_343_1211" x1="2.01425" y1="28.0416" x2="29.8113" y2="3.97886" gradientUnits="userSpaceOnUse">
<stop stop-color="#FFDD55"/>
<stop offset="0.5" stop-color="#FF543E"/>
<stop offset="1" stop-color="#C837AB"/>
</linearGradient>
</defs>
</svg>
