<svg width="26" height="26" viewBox="0 0 26 26" fill="none" xmlns="http://www.w3.org/2000/svg">
<g clip-path="url(#clip0_112_2136)">
<path d="M10.2814 25.0571C8.85385 25.0571 7.69238 23.8956 7.69238 22.4681C7.69238 21.0405 8.85385 19.8794 10.2814 19.8794C11.709 19.8794 12.8704 21.0405 12.8704 22.4681C12.8704 23.8956 11.709 25.0571 10.2814 25.0571ZM10.2814 21.5044C9.75004 21.5044 9.31738 21.9367 9.31738 22.4681C9.31738 22.9998 9.74963 23.4321 10.2814 23.4321C10.8132 23.4321 11.2454 22.9998 11.2454 22.4681C11.2454 21.9367 10.8132 21.5044 10.2814 21.5044Z" fill="black"/>
<path d="M19.2815 25.0571C17.8539 25.0571 16.6929 23.8956 16.6929 22.4681C16.6929 21.0405 17.8539 19.8794 19.2815 19.8794C20.7091 19.8794 21.8705 21.0405 21.8705 22.4681C21.8705 23.8956 20.7087 25.0571 19.2815 25.0571ZM19.2815 21.5044C18.7501 21.5044 18.3179 21.9367 18.3179 22.4681C18.3179 22.9998 18.7501 23.4321 19.2815 23.4321C19.8133 23.4321 20.2455 22.9998 20.2455 22.4681C20.2455 21.9367 19.8129 21.5044 19.2815 21.5044Z" fill="black"/>
<path d="M21.177 17.8726H8.41301C7.17111 17.8726 6.11039 17.0272 5.83332 15.8165L3.18417 4.24774C3.14923 4.09499 3.04361 3.96418 2.90142 3.89837L0.704011 2.8799C0.195386 2.64428 -0.02602 2.04059 0.209605 1.53156C0.44523 1.02293 1.04932 0.801525 1.55795 1.03715L3.75536 2.05562C4.46345 2.38346 4.99036 3.03346 5.16423 3.79437L7.81339 15.364C7.87757 15.6451 8.12417 15.8417 8.41301 15.8417H21.177C21.4646 15.8417 21.7108 15.6463 21.7766 15.366L23.8363 6.50446C23.8952 6.25259 23.788 6.06937 23.7193 5.98284C23.6502 5.8959 23.4959 5.75046 23.2375 5.75046H8.20623C7.6452 5.75046 7.19061 5.29587 7.19061 4.73484C7.19061 4.17381 7.6452 3.71921 8.20623 3.71921H23.2375C24.0496 3.71921 24.8044 4.08362 25.3098 4.7194C25.8151 5.35518 25.9988 6.17337 25.8151 6.96434L23.755 15.8263C23.4743 17.0308 22.4144 17.8726 21.177 17.8726Z" fill="black"/>
</g>
<defs>
<clipPath id="clip0_112_2136">
<rect width="26" height="26" fill="white"/>
</clipPath>
</defs>
</svg>
